<svg width="261" height="56" viewBox="0 0 261 56" fill="none" xmlns="http://www.w3.org/2000/svg">
<rect y="0.948151" width="261" height="55" rx="27.5" fill="#2791C2"/>
<path d="M102.002 23.7401L99.2773 34.4482H96.6919L95.2417 28.8232C95.2124 28.7157 95.1733 28.5522 95.1245 28.3324C95.0757 28.1127 95.0244 27.8734 94.9707 27.6147C94.917 27.351 94.8682 27.1044 94.8242 26.8749C94.7852 26.6405 94.7583 26.455 94.7437 26.3183C94.729 26.455 94.6997 26.6381 94.6558 26.8676C94.6167 27.0971 94.5703 27.3412 94.5166 27.6C94.4678 27.8588 94.4189 28.1005 94.3701 28.3251C94.3213 28.5497 94.2822 28.7206 94.2529 28.8378L92.8101 34.4482H90.2319L87.5 23.7401H89.7339L91.1035 29.5849C91.1426 29.7607 91.1865 29.9706 91.2354 30.2148C91.2891 30.4589 91.3403 30.7152 91.3892 30.9838C91.4429 31.2475 91.4893 31.5038 91.5283 31.7528C91.5723 31.997 91.604 32.2094 91.6235 32.39C91.6479 32.2045 91.6797 31.9897 91.7188 31.7455C91.7578 31.4965 91.7993 31.245 91.8433 30.9911C91.8921 30.7323 91.9409 30.4931 91.9897 30.2733C92.0386 30.0536 92.0825 29.8754 92.1216 29.7387L93.6816 23.7401H95.8276L97.3877 29.7387C97.4219 29.8705 97.4609 30.0487 97.5049 30.2733C97.5537 30.4931 97.6025 30.7323 97.6514 30.9911C97.7002 31.2499 97.7441 31.5038 97.7832 31.7528C97.8271 31.997 97.8589 32.2094 97.8784 32.39C97.9126 32.1459 97.959 31.8505 98.0176 31.5038C98.0811 31.1523 98.147 30.8031 98.2153 30.4565C98.2886 30.1098 98.3521 29.8192 98.4058 29.5849L99.7681 23.7401H102.002ZM106.528 26.0912C107.627 26.0912 108.469 26.3305 109.055 26.809C109.641 27.2875 109.934 28.015 109.934 28.9916V34.4482H108.374L107.942 33.3349H107.883C107.649 33.6278 107.41 33.8671 107.166 34.0526C106.921 34.2382 106.641 34.3749 106.323 34.4628C106.006 34.5507 105.62 34.5946 105.166 34.5946C104.683 34.5946 104.248 34.5019 103.862 34.3163C103.481 34.1308 103.181 33.8476 102.961 33.4667C102.742 33.081 102.632 32.5927 102.632 32.0019C102.632 31.1327 102.937 30.4931 103.547 30.0829C104.158 29.6679 105.073 29.4384 106.294 29.3944L107.715 29.3505V28.9916C107.715 28.5619 107.603 28.247 107.378 28.0468C107.153 27.8466 106.841 27.7465 106.44 27.7465C106.045 27.7465 105.657 27.8026 105.276 27.9149C104.895 28.0273 104.514 28.1689 104.133 28.3398L103.394 26.831C103.828 26.6015 104.314 26.4208 104.851 26.289C105.393 26.1571 105.952 26.0912 106.528 26.0912ZM107.715 30.6542L106.851 30.6835C106.128 30.703 105.625 30.8324 105.342 31.0717C105.063 31.3109 104.924 31.6259 104.924 32.0165C104.924 32.3583 105.024 32.6024 105.225 32.7489C105.425 32.8905 105.686 32.9613 106.008 32.9613C106.487 32.9613 106.89 32.8197 107.217 32.5365C107.549 32.2533 107.715 31.8505 107.715 31.328V30.6542ZM115.691 32.8148C115.935 32.8148 116.172 32.7904 116.401 32.7416C116.636 32.6928 116.868 32.6317 117.097 32.5585V34.2211C116.858 34.3285 116.56 34.4164 116.204 34.4848C115.852 34.558 115.466 34.5946 115.046 34.5946C114.558 34.5946 114.119 34.5165 113.728 34.3603C113.342 34.1991 113.037 33.9232 112.812 33.5326C112.593 33.1371 112.483 32.5878 112.483 31.8847V27.9369H111.414V26.9921L112.644 26.245L113.289 24.5165H114.717V26.2597H117.009V27.9369H114.717V31.8847C114.717 32.1972 114.805 32.4315 114.98 32.5878C115.161 32.7392 115.398 32.8148 115.691 32.8148ZM122.085 34.5946C121.274 34.5946 120.583 34.4482 120.012 34.1552C119.441 33.8573 119.006 33.3983 118.708 32.7782C118.411 32.1581 118.262 31.3647 118.262 30.3979C118.262 29.3969 118.43 28.5815 118.767 27.9516C119.109 27.3168 119.58 26.8505 120.181 26.5526C120.786 26.2548 121.487 26.1059 122.283 26.1059C122.849 26.1059 123.337 26.162 123.748 26.2743C124.163 26.3817 124.524 26.5111 124.832 26.6625L124.172 28.391C123.821 28.2494 123.494 28.1347 123.191 28.0468C122.888 27.954 122.585 27.9076 122.283 27.9076C121.892 27.9076 121.567 28.0004 121.309 28.1859C121.05 28.3666 120.857 28.64 120.73 29.0063C120.603 29.3725 120.54 29.8315 120.54 30.3832C120.54 30.9252 120.608 31.3744 120.745 31.7309C120.881 32.0873 121.079 32.3534 121.338 32.5292C121.597 32.7001 121.912 32.7856 122.283 32.7856C122.747 32.7856 123.159 32.7245 123.521 32.6024C123.882 32.4755 124.233 32.2997 124.575 32.0751V33.9867C124.233 34.2016 123.875 34.3554 123.499 34.4482C123.127 34.5458 122.656 34.5946 122.085 34.5946ZM128.713 23.0517V25.3734C128.713 25.7787 128.699 26.1645 128.669 26.5307C128.645 26.8969 128.625 27.1557 128.611 27.307H128.728C128.904 27.0238 129.111 26.7943 129.351 26.6186C129.595 26.4428 129.863 26.3134 130.156 26.2304C130.449 26.1474 130.764 26.1059 131.101 26.1059C131.692 26.1059 132.207 26.2108 132.646 26.4208C133.086 26.6259 133.428 26.9506 133.672 27.3949C133.916 27.8344 134.038 28.4057 134.038 29.1088V34.4482H131.804V29.6654C131.804 29.0795 131.697 28.6376 131.482 28.3398C131.267 28.0419 130.935 27.893 130.486 27.893C130.037 27.893 129.683 27.998 129.424 28.2079C129.165 28.413 128.982 28.7182 128.875 29.1234C128.767 29.5238 128.713 30.0146 128.713 30.5956V34.4482H126.479V23.0517H128.713ZM149.91 34.4482H147.024L142.366 26.3476H142.3C142.319 26.6845 142.336 27.0238 142.351 27.3656C142.366 27.7074 142.38 28.0492 142.395 28.391C142.41 28.7279 142.424 29.0673 142.439 29.4091V34.4482H140.41V23.7401H143.274L147.925 31.7602H147.976C147.966 31.4281 147.954 31.0985 147.939 30.7714C147.925 30.4442 147.91 30.1171 147.896 29.7899C147.886 29.4628 147.876 29.1357 147.866 28.8085V23.7401H149.91V34.4482ZM159.878 30.3393C159.878 31.0229 159.785 31.6283 159.6 32.1557C159.419 32.683 159.153 33.1298 158.801 33.496C158.455 33.8573 158.035 34.1308 157.542 34.3163C157.053 34.5019 156.501 34.5946 155.886 34.5946C155.31 34.5946 154.78 34.5019 154.297 34.3163C153.818 34.1308 153.401 33.8573 153.044 33.496C152.693 33.1298 152.419 32.683 152.224 32.1557C152.034 31.6283 151.938 31.0229 151.938 30.3393C151.938 29.4311 152.1 28.662 152.422 28.0321C152.744 27.4023 153.203 26.9237 153.799 26.5966C154.395 26.2694 155.105 26.1059 155.93 26.1059C156.697 26.1059 157.375 26.2694 157.966 26.5966C158.562 26.9237 159.028 27.4023 159.365 28.0321C159.707 28.662 159.878 29.4311 159.878 30.3393ZM154.216 30.3393C154.216 30.8764 154.275 31.328 154.392 31.6942C154.509 32.0605 154.692 32.3363 154.941 32.5219C155.19 32.7074 155.515 32.8002 155.916 32.8002C156.311 32.8002 156.631 32.7074 156.875 32.5219C157.124 32.3363 157.305 32.0605 157.417 31.6942C157.534 31.328 157.593 30.8764 157.593 30.3393C157.593 29.7973 157.534 29.3481 157.417 28.9916C157.305 28.6303 157.124 28.3593 156.875 28.1786C156.626 27.998 156.301 27.9076 155.901 27.9076C155.31 27.9076 154.88 28.1103 154.612 28.5155C154.348 28.9208 154.216 29.5287 154.216 30.3393ZM168.455 34.4482L167.825 31.5844C167.791 31.4135 167.734 31.162 167.656 30.83C167.578 30.4931 167.493 30.1342 167.4 29.7533C167.312 29.3676 167.229 29.0111 167.151 28.684C167.078 28.3568 167.024 28.1176 166.99 27.9662H166.924C166.89 28.1176 166.836 28.3568 166.763 28.684C166.689 29.0111 166.606 29.3676 166.514 29.7533C166.426 30.1391 166.343 30.5028 166.265 30.8446C166.187 31.1815 166.128 31.4379 166.089 31.6137L165.43 34.4482H163.027L160.698 26.2597H162.925L163.87 29.8852C163.933 30.1391 163.994 30.4418 164.053 30.7934C164.111 31.14 164.163 31.477 164.207 31.8041C164.255 32.1264 164.292 32.3827 164.316 32.5732H164.375C164.385 32.4315 164.404 32.2436 164.434 32.0092C164.468 31.7748 164.504 31.5331 164.543 31.2841C164.587 31.0302 164.626 30.8031 164.661 30.6029C164.7 30.3979 164.729 30.2587 164.749 30.1855L165.759 26.2597H168.22L169.18 30.1855C169.214 30.3271 169.258 30.5517 169.312 30.8593C169.37 31.1669 169.421 31.4843 169.465 31.8114C169.509 32.1337 169.534 32.3876 169.539 32.5732H169.597C169.617 32.4071 169.651 32.1606 169.7 31.8334C169.749 31.5063 169.805 31.1645 169.868 30.808C169.937 30.4467 170.005 30.1391 170.073 29.8852L171.055 26.2597H173.245L170.886 34.4482H168.455Z" fill="white"/>
</svg>
