<svg width="28" height="29" viewBox="0 0 28 29" fill="none" xmlns="http://www.w3.org/2000/svg">
<path d="M27.8111 11.8535H22.1444H14.3557V17.3822H22.1633C21.9114 18.8471 21.3699 20.1465 20.2555 21.1529C19.9406 21.4331 19.6069 21.6943 19.2543 21.9299C17.8754 22.8471 16.2258 23.3822 14.4565 23.3822C10.6283 23.3822 7.37936 20.8854 6.20193 17.414C5.89971 16.5159 5.7297 15.5541 5.7297 14.5478C5.7297 13.535 5.89971 12.5541 6.20823 11.6497C7.39195 8.19745 10.6346 5.71975 14.4502 5.71975C16.528 5.71975 18.3414 6.63694 19.8273 7.89172L23.9451 3.79618L23.9388 3.78981C21.414 1.49682 18.0139 0 14.3557 0C8.76456 0 3.88487 3.30573 1.51743 8.07643C0.547785 10.0318 0 12.2293 0 14.5541C0 16.8726 0.541489 19.0637 1.49854 21C3.84079 25.7452 8.68271 29 14.2739 29C17.9132 29 21.3132 27.7643 23.8381 25.4968C23.8507 25.4841 23.8696 25.4713 23.8822 25.4522C26.1363 23.4013 27.3641 20.5478 27.8111 17.3822V17.3758C27.8111 17.3758 28 15.2611 28 14.5541C28 13.879 27.8111 11.8535 27.8111 11.8535Z" fill="white"/>
</svg>
